# xmcd
# 
# Track frame offsets:
#     150
#     18752
#     35285
#     53420
#     72405
#     93220
#     112567
#     132240
#     154117
#     177427
#     194942
#     217520
#     236722
#     256310
#     277140
# 
# Disc length: 4004
# 
# Revision: 14
# Processed by: cddbd v1.5.2PL0 Copyright (c) Steve Scherf et al.
# Submitted via: BonkEnc v1.0.8
# 
DISCID=c60fa20f
DTITLE=名探偵　コナン - THE BEST OF DETECTIVE CONAN 2
DYEAR=2003
DGENRE=Anime
TTITLE0=倉木麻衣/always
TTITLE1=B'z/Everlasting
TTITLE2=倉木麻衣/Time after time ～花舞う街で～
TTITLE3=松橋未樹/destiny
TTITLE4=倉木麻衣/Winter Bells
TTITLE5=愛内里菜/I can't stop my love for you
TTITLE6=倉木麻衣/風のららら
TTITLE7=三枝夕夏 IN db/君と約束した優しいあの場所まで
TTITLE8=倉木麻衣/Start in my life
TTITLE9=上原あずみ/青い青いこの地球に
TTITLE10=GARNET CROW/夢みたあとで
TTITLE11=上原あずみ/無色
TTITLE12=稲葉浩志/Overture
TTITLE13=ZARD/明日を夢見て
TTITLE14=GARNET CROW/君という光
EXTD=YEAR: 2003
EXTT0=
EXTT1=
EXTT2=
EXTT3=
EXTT4=
EXTT5=
EXTT6=
EXTT7=
EXTT8=
EXTT9=
EXTT10=
EXTT11=
EXTT12=
EXTT13=
EXTT14=
PLAYORDER=
